# xmcd CD database file
#
# Track frame offsets:
#	150
#	20165
#	38492
#	52050
#
# Disc length: 947 seconds
#
# Revision: 2
# Processed by: cddbd v1.5.2PL0 Copyright (c) Steve Scherf et al.
# Submitted via: CDex 1.60beta1-cs1
#
DISCID=2e03b104
DTITLE=中嶋美智代 - 非常識なワニ
DYEAR=1992
DGENRE=JPop
TTITLE0=非常識なワニ～ワニとキリンの愛のお話
TTITLE1=雨の動物園
TTITLE2=森の熊さん
TTITLE3=紅いライオン
EXTD=YEAR: 1992
EXTT0=
EXTT1=
EXTT2=
EXTT3=
PLAYORDER=
